<svg width="1036" height="1036" viewBox="0 0 1036 1036" fill="none" xmlns="http://www.w3.org/2000/svg">
<rect width="1036" height="1036" fill="#1E1E1E"/>
<circle cx="518" cy="518" r="518" fill="#FFF8F8"/>
<g filter="url(#filter0_d_0_1)">
<circle cx="518" cy="520" r="352" stroke="#6D202A" stroke-width="10" shape-rendering="crispEdges"/>
</g>
<g filter="url(#filter1_d_0_1)">
<path d="M692.5 205.926C690 180.154 687.714 167.399 676 146.866C661.894 122.14 640.5 106.597 623.5 98.5436C606.5 90.4899 569.5 82.9732 550.5 73.8456C531.5 64.7181 514.5 47 514.5 47C514.5 47 514.062 47.8987 512.78 49.5391" stroke="#6D202A" stroke-width="13" stroke-linecap="round"/>
<path d="M333 207C335.5 181.228 337.786 168.473 349.5 147.94C363.606 123.214 385 107.671 402 99.6174C419 91.5638 456 84.047 475 74.9195C494 65.7919 511 48.0738 511 48.0738C511 48.0738 511.438 48.9726 512.72 50.6129" stroke="#6D202A" stroke-width="13" stroke-linecap="round"/>
</g>
<g filter="url(#filter2_d_0_1)">
<path d="M877.39 522.323C898.43 507.19 908.308 498.776 920.109 478.158C934.32 453.329 936.86 426.69 935.158 407.679C933.456 388.667 921.082 352.313 919.289 331.002C917.497 309.69 924.163 285.829 924.163 285.829C924.163 285.829 923.161 285.894 921.086 285.588" stroke="#6D202A" stroke-width="13" stroke-linecap="round"/>
<path d="M693 206.286C716.591 195.555 728.802 191.168 752.559 191.18C781.167 191.195 805.543 202.235 821.192 213.164C836.841 224.093 862.231 252.904 879.83 265.055C897.43 277.206 921.447 283.286 921.447 283.286C921.447 283.286 920.892 284.123 920.126 286.075" stroke="#6D202A" stroke-width="13" stroke-linecap="round"/>
</g>
<g filter="url(#filter3_d_0_1)">
<circle cx="518" cy="520" r="298" stroke="#6D202A" stroke-width="10" shape-rendering="crispEdges"/>
</g>
<g filter="url(#filter4_d_0_1)">
<path d="M706.93 824.313C730.481 835.108 742.649 839.565 766.161 839.951C794.474 840.415 818.39 830.121 833.672 819.79C848.953 809.459 873.539 781.959 890.728 770.475C907.917 758.992 931.572 753.501 931.572 753.501C931.572 753.501 931.007 752.68 930.212 750.775" stroke="#6D202A" stroke-width="13" stroke-linecap="round"/>
<path d="M881.599 520C902.707 535.02 912.642 543.34 924.711 563.522C939.244 587.826 942.26 613.687 940.934 632.086C939.608 650.484 928.048 685.514 926.676 706.14C925.303 726.767 932.351 750.005 932.351 750.005C932.351 750.005 931.358 749.926 929.311 750.187" stroke="#6D202A" stroke-width="13" stroke-linecap="round"/>
</g>
<g filter="url(#filter5_d_0_1)">
<path d="M334.008 824.705C336.767 850.477 339.214 863.225 351.433 883.688C366.147 908.329 388.307 923.726 405.886 931.661C423.464 939.596 461.652 946.848 481.299 955.843C500.946 964.839 518.593 982.445 518.593 982.445C518.593 982.445 519.039 981.543 520.348 979.892" stroke="#6D202A" stroke-width="13" stroke-linecap="round"/>
<path d="M704.521 821C702.128 846.809 699.862 859.59 687.935 880.225C673.572 905.072 651.633 920.782 634.169 928.966C616.705 937.15 578.624 944.943 559.106 954.216C539.588 963.49 522.193 981.345 522.193 981.345C522.193 981.345 521.735 980.449 520.402 978.817" stroke="#6D202A" stroke-width="13" stroke-linecap="round"/>
</g>
<g filter="url(#filter6_d_0_1)">
<path d="M159.749 518.364C138.398 533.037 128.328 541.193 115.932 561.178C101.005 585.245 97.5689 611.06 98.5958 629.483C99.6228 647.906 110.613 683.132 111.651 703.784C112.688 724.436 105.263 747.562 105.263 747.562C105.263 747.562 106.257 747.498 108.3 747.794" stroke="#6D202A" stroke-width="13" stroke-linecap="round"/>
<path d="M331.344 824.568C307.62 834.975 295.38 839.231 271.863 839.227C243.543 839.222 219.795 828.531 204.682 817.945C189.569 807.36 165.431 779.448 148.43 767.679C131.428 755.909 107.864 750.025 107.864 750.025C107.864 750.025 108.441 749.214 109.267 747.322" stroke="#6D202A" stroke-width="13" stroke-linecap="round"/>
</g>
<g filter="url(#filter7_d_0_1)">
<path d="M336.554 211.129C311.646 199.714 298.804 194.963 274.185 194.206C244.539 193.294 219.753 203.464 204.005 213.806C188.257 224.148 163.18 251.924 145.463 263.416C127.747 274.909 103.119 280.166 103.119 280.166C103.119 280.166 103.729 281.015 104.607 282.977" stroke="#6D202A" stroke-width="13" stroke-linecap="round"/>
<path d="M161 520C138.548 504.297 127.951 495.626 114.837 474.776C99.0453 449.67 95.2706 423.145 96.2189 404.329C97.1673 385.512 108.43 349.827 109.374 328.73C110.318 307.633 102.387 283.732 102.387 283.732C102.387 283.732 103.428 283.829 105.564 283.593" stroke="#6D202A" stroke-width="13" stroke-linecap="round"/>
</g>
<path d="M784.375 513.207C775.439 456.61 742.672 418.631 691.288 397.034C657.032 382.885 617.563 390.332 592.988 423.099C582.562 436.503 575.86 451.397 571.391 468.525C567.668 483.419 561.71 497.569 552.029 510.229C537.135 531.08 517.773 537.038 493.943 528.846C482.027 525.123 471.602 519.165 461.176 512.463C454.473 507.995 454.473 507.995 460.431 502.782C482.027 485.654 494.687 464.057 493.198 436.503C492.453 418.631 487.24 401.502 476.814 385.864C451.495 344.905 413.515 326.288 367.344 338.948C333.087 348.629 306.278 369.48 281.703 393.311C280.214 394.8 277.98 397.034 277.98 397.034C277.98 397.034 280.214 400.758 281.703 402.247C294.363 421.609 307.023 440.227 319.683 459.589C322.662 463.313 325.64 467.036 325.64 467.036C325.64 467.036 327.875 463.313 330.853 460.334C347.237 438.737 368.088 423.844 393.408 416.397C407.557 412.673 421.707 411.928 435.856 417.141C450.75 422.354 456.708 434.269 454.473 449.163C452.239 461.078 445.537 467.781 435.111 472.249C420.962 478.207 400.855 478.207 391.919 478.207C383.727 478.207 381.493 478.207 381.493 478.207C381.493 478.207 382.982 481.93 383.727 485.654C388.195 502.782 391.919 520.654 394.898 538.527C395.642 541.506 396.387 546.719 396.387 546.719C396.387 546.719 401.6 545.974 404.579 545.974C417.239 545.23 429.898 544.485 442.558 547.464C459.686 551.187 476.07 557.889 482.027 576.507C488.73 597.359 486.496 618.21 471.602 634.593C450.005 658.424 420.962 665.126 389.685 660.658C359.152 656.934 333.087 642.04 308.512 624.168C282.448 605.55 263.83 580.23 246.702 553.421C245.213 551.187 240 541.506 240 541.506L241.489 549.698C242.234 552.677 242.979 554.911 243.723 557.889C256.383 595.869 276.49 630.87 301.81 661.403C324.151 688.212 351.705 708.319 384.472 720.979C430.643 738.851 476.07 726.936 505.113 688.957C525.965 661.403 529.688 630.125 525.22 596.614C523.731 585.443 518.518 563.847 518.518 563.847C518.518 563.847 560.221 588.422 601.924 560.124C619.797 548.208 630.223 527.357 639.159 507.995C646.606 490.866 657.776 476.717 670.436 464.057C681.607 453.631 694.267 446.184 709.905 449.908C730.757 454.376 742.672 470.015 748.63 489.377C753.843 506.505 753.098 525.123 749.374 542.995C741.927 576.507 723.31 602.571 695.011 622.678C672.67 639.062 648.84 642.04 622.776 632.359C601.924 624.912 585.541 611.508 570.647 595.869C569.157 594.38 564.689 589.911 564.689 589.911C564.689 589.911 563.944 596.614 563.2 599.593C560.221 639.806 586.285 678.531 627.988 689.701C671.926 700.872 709.161 691.935 738.949 656.934C758.311 633.849 769.481 607.04 778.418 578.741C786.609 556.4 788.099 535.548 784.375 513.207Z" fill="#6D202A"/>
<path d="M593.732 312.139C574.37 330.011 552.774 341.927 525.965 338.948C504.368 336.714 486.495 327.033 470.112 313.628C462.665 307.67 447.026 294.266 447.026 294.266C447.026 294.266 448.516 297.989 449.261 298.734C458.197 321.075 469.367 341.182 485.751 359.055C499.9 375.438 517.028 385.864 538.624 389.587C555.008 392.566 572.136 394.8 588.519 393.311C615.329 391.077 638.414 380.651 656.287 360.544C658.521 358.31 662.245 353.842 662.245 353.842C662.245 353.842 658.521 350.118 657.032 347.884C642.882 330.756 629.478 313.628 616.073 295.755C614.584 294.266 612.35 290.542 612.35 290.542C612.35 290.542 610.116 293.521 608.626 295.755C603.413 301.713 598.2 307.67 593.732 312.139Z" fill="#6D202A"/>
<path d="M492.528 284.44L530.968 322.88L569.408 284.44L530.968 246L492.528 284.44Z" fill="#6D202A"/>
<defs>
<filter id="filter0_d_0_1" x="146" y="148" width="744" height="744" filterUnits="userSpaceOnUse" color-interpolation-filters="sRGB">
<feFlood flood-opacity="0" result="BackgroundImageFix"/>
<feColorMatrix in="SourceAlpha" type="matrix" values="0 0 0 0 0 0 0 0 0 0 0 0 0 0 0 0 0 0 127 0" result="hardAlpha"/>
<feMorphology radius="11" operator="dilate" in="SourceAlpha" result="effect1_dropShadow_0_1"/>
<feOffset/>
<feGaussianBlur stdDeviation="2"/>
<feComposite in2="hardAlpha" operator="out"/>
<feColorMatrix type="matrix" values="0 0 0 0 0.988235 0 0 0 0 0.752941 0 0 0 0 0.262745 0 0 0 1 0"/>
<feBlend mode="normal" in2="BackgroundImageFix" result="effect1_dropShadow_0_1"/>
<feBlend mode="normal" in="SourceGraphic" in2="effect1_dropShadow_0_1" result="shape"/>
</filter>
<filter id="filter1_d_0_1" x="323.5" y="20.7788" width="378.501" height="192.722" filterUnits="userSpaceOnUse" color-interpolation-filters="sRGB">
<feFlood flood-opacity="0" result="BackgroundImageFix"/>
<feColorMatrix in="SourceAlpha" type="matrix" values="0 0 0 0 0 0 0 0 0 0 0 0 0 0 0 0 0 0 127 0" result="hardAlpha"/>
<feOffset dy="-12"/>
<feGaussianBlur stdDeviation="1.5"/>
<feComposite in2="hardAlpha" operator="out"/>
<feColorMatrix type="matrix" values="0 0 0 0 0.988235 0 0 0 0 0.752941 0 0 0 0 0.262745 0 0 0 1 0"/>
<feBlend mode="normal" in2="BackgroundImageFix" result="effect1_dropShadow_0_1"/>
<feBlend mode="normal" in="SourceGraphic" in2="effect1_dropShadow_0_1" result="shape"/>
</filter>
<filter id="filter2_d_0_1" x="686.498" y="173.68" width="269.623" height="355.144" filterUnits="userSpaceOnUse" color-interpolation-filters="sRGB">
<feFlood flood-opacity="0" result="BackgroundImageFix"/>
<feColorMatrix in="SourceAlpha" type="matrix" values="0 0 0 0 0 0 0 0 0 0 0 0 0 0 0 0 0 0 127 0" result="hardAlpha"/>
<feOffset dx="11" dy="-8"/>
<feGaussianBlur stdDeviation="1.5"/>
<feComposite in2="hardAlpha" operator="out"/>
<feColorMatrix type="matrix" values="0 0 0 0 0.988235 0 0 0 0 0.752941 0 0 0 0 0.262745 0 0 0 1 0"/>
<feBlend mode="normal" in2="BackgroundImageFix" result="effect1_dropShadow_0_1"/>
<feBlend mode="normal" in="SourceGraphic" in2="effect1_dropShadow_0_1" result="shape"/>
</filter>
<filter id="filter3_d_0_1" x="201" y="207" width="634" height="634" filterUnits="userSpaceOnUse" color-interpolation-filters="sRGB">
<feFlood flood-opacity="0" result="BackgroundImageFix"/>
<feColorMatrix in="SourceAlpha" type="matrix" values="0 0 0 0 0 0 0 0 0 0 0 0 0 0 0 0 0 0 127 0" result="hardAlpha"/>
<feMorphology radius="10" operator="dilate" in="SourceAlpha" result="effect1_dropShadow_0_1"/>
<feOffset dy="4"/>
<feGaussianBlur stdDeviation="2"/>
<feComposite in2="hardAlpha" operator="out"/>
<feColorMatrix type="matrix" values="0 0 0 0 0.988235 0 0 0 0 0.752941 0 0 0 0 0.262745 0 0 0 1 0"/>
<feBlend mode="normal" in2="BackgroundImageFix" result="effect1_dropShadow_0_1"/>
<feBlend mode="normal" in="SourceGraphic" in2="effect1_dropShadow_0_1" result="shape"/>
</filter>
<filter id="filter4_d_0_1" x="700.429" y="513.5" width="260.287" height="340.966" filterUnits="userSpaceOnUse" color-interpolation-filters="sRGB">
<feFlood flood-opacity="0" result="BackgroundImageFix"/>
<feColorMatrix in="SourceAlpha" type="matrix" values="0 0 0 0 0 0 0 0 0 0 0 0 0 0 0 0 0 0 127 0" result="hardAlpha"/>
<feOffset dx="10" dy="5"/>
<feGaussianBlur stdDeviation="1.5"/>
<feComposite in2="hardAlpha" operator="out"/>
<feColorMatrix type="matrix" values="0 0 0 0 0.988235 0 0 0 0 0.752941 0 0 0 0 0.262745 0 0 0 1 0"/>
<feBlend mode="normal" in2="BackgroundImageFix" result="effect1_dropShadow_0_1"/>
<feBlend mode="normal" in="SourceGraphic" in2="effect1_dropShadow_0_1" result="shape"/>
</filter>
<filter id="filter5_d_0_1" x="324.507" y="814.5" width="389.515" height="194.944" filterUnits="userSpaceOnUse" color-interpolation-filters="sRGB">
<feFlood flood-opacity="0" result="BackgroundImageFix"/>
<feColorMatrix in="SourceAlpha" type="matrix" values="0 0 0 0 0 0 0 0 0 0 0 0 0 0 0 0 0 0 127 0" result="hardAlpha"/>
<feOffset dy="13"/>
<feGaussianBlur stdDeviation="1.5"/>
<feComposite in2="hardAlpha" operator="out"/>
<feColorMatrix type="matrix" values="0 0 0 0 0.988235 0 0 0 0 0.752941 0 0 0 0 0.262745 0 0 0 1 0"/>
<feBlend mode="normal" in2="BackgroundImageFix" result="effect1_dropShadow_0_1"/>
<feBlend mode="normal" in="SourceGraphic" in2="effect1_dropShadow_0_1" result="shape"/>
</filter>
<filter id="filter6_d_0_1" x="76.9283" y="511.863" width="260.918" height="343.864" filterUnits="userSpaceOnUse" color-interpolation-filters="sRGB">
<feFlood flood-opacity="0" result="BackgroundImageFix"/>
<feColorMatrix in="SourceAlpha" type="matrix" values="0 0 0 0 0 0 0 0 0 0 0 0 0 0 0 0 0 0 127 0" result="hardAlpha"/>
<feOffset dx="-12" dy="7"/>
<feGaussianBlur stdDeviation="1.5"/>
<feComposite in2="hardAlpha" operator="out"/>
<feColorMatrix type="matrix" values="0 0 0 0 0.988235 0 0 0 0 0.752941 0 0 0 0 0.262745 0 0 0 1 0"/>
<feBlend mode="normal" in2="BackgroundImageFix" result="effect1_dropShadow_0_1"/>
<feBlend mode="normal" in="SourceGraphic" in2="effect1_dropShadow_0_1" result="shape"/>
</filter>
<filter id="filter7_d_0_1" x="76.5829" y="176.649" width="266.472" height="349.852" filterUnits="userSpaceOnUse" color-interpolation-filters="sRGB">
<feFlood flood-opacity="0" result="BackgroundImageFix"/>
<feColorMatrix in="SourceAlpha" type="matrix" values="0 0 0 0 0 0 0 0 0 0 0 0 0 0 0 0 0 0 127 0" result="hardAlpha"/>
<feOffset dx="-10" dy="-8"/>
<feGaussianBlur stdDeviation="1.5"/>
<feComposite in2="hardAlpha" operator="out"/>
<feColorMatrix type="matrix" values="0 0 0 0 0.988235 0 0 0 0 0.752941 0 0 0 0 0.262745 0 0 0 1 0"/>
<feBlend mode="normal" in2="BackgroundImageFix" result="effect1_dropShadow_0_1"/>
<feBlend mode="normal" in="SourceGraphic" in2="effect1_dropShadow_0_1" result="shape"/>
</filter>
</defs>
</svg>
